<!-- Generator: Adobe Illustrator 19.2.1, SVG Export Plug-In  -->
<svg version="1.1"
   xmlns="http://www.w3.org/2000/svg" xmlns:xlink="http://www.w3.org/1999/xlink" xmlns:a="http://ns.adobe.com/AdobeSVGViewerExtensions/3.0/"
   x="0px" y="0px" width="173.496px" height="166.392px" viewBox="0 0 173.496 166.392"
   style="enable-background:new 0 0 173.496 166.392;" xml:space="preserve">
<defs>
</defs>
<g>
  <path d="M75.62,101.987l-0.251-0.117c-8.651-4.013-18.754-13.654-18.754-27.614c0-5.34,1.926-10.009,5.57-13.5
    c6.813-6.523,17.795-7.03,21-7.03c0.343,0,0.659,0.006,0.945,0.015l74.581,0.004C146.813,22.134,119.156,0,82.149,0
    C36.78,0,0,34.237,0,76.472c0,23.257,12.863,47.819,20.231,52.366c15.625,9.643,49.269,18.22,68.975,23.432
    c26.402,6.983,45.63,13.115,58.002,14.084c7.958,0.624,19.61-6.28,23.291-26.574L75.62,101.987z"/>
  <path d="M163.898,63.745l-79.956-0.004c-2.772-0.12-10.843,0.409-14.839,4.236c-1.674,1.604-2.488,3.657-2.488,6.279
    c0,12.233,11.859,18.031,12.962,18.543l93.918,37.41C173.341,116.848,164.959,67.871,163.898,63.745z M100.403,90.33l16.588-16.588
    l14.142,0.001l-20.616,20.615L100.403,90.33z M136.253,104.61l-15.623-6.223l24.644-24.644l10.359,0
    c0.487,2.767,1.061,6.13,1.671,9.815L136.253,104.61z"/>
</g>
</svg>