<?xml version="1.0" encoding="UTF-8" standalone="no"?>
<!-- Generator: Adobe Illustrator 19.2.1, SVG Export Plug-In  -->

<svg
  xmlns:dc="http://purl.org/dc/elements/1.1/"
  xmlns:cc="http://creativecommons.org/ns#"
  xmlns:rdf="http://www.w3.org/1999/02/22-rdf-syntax-ns#"
  xmlns:svg="http://www.w3.org/2000/svg"
  xmlns="http://www.w3.org/2000/svg"
  xmlns:sodipodi="http://sodipodi.sourceforge.net/DTD/sodipodi-0.dtd"
  xmlns:inkscape="http://www.inkscape.org/namespaces/inkscape"
  version="1.1"
  x="0px"
  y="0px"
  width="173.496px"
  height="166.392px"
  viewBox="0 0 173.496 166.392"
  style="enable-background:new 0 0 173.496 166.392;"
  xml:space="preserve"
  id="svg10"
  sodipodi:docname="helmet-motorcycle-svgrepo-com-2.svg"
  inkscape:version="0.92.0 r15299"><metadata
    id="metadata14"><rdf:RDF><cc:Work
        rdf:about=""><dc:format>image/svg+xml</dc:format><dc:type
          rdf:resource="http://purl.org/dc/dcmitype/StillImage" /><dc:title></dc:title></cc:Work></rdf:RDF></metadata><sodipodi:namedview
    pagecolor="#ffffff"
    bordercolor="#666666"
    borderopacity="1"
    objecttolerance="10"
    gridtolerance="10"
    guidetolerance="10"
    inkscape:pageopacity="0"
    inkscape:pageshadow="2"
    inkscape:window-width="1416"
    inkscape:window-height="1011"
    id="namedview12"
    showgrid="false"
    inkscape:zoom="2.8284271"
    inkscape:cx="118.73319"
    inkscape:cy="53.191079"
    inkscape:window-x="-1"
    inkscape:window-y="0"
    inkscape:window-maximized="0"
    inkscape:current-layer="svg10" /><defs
    id="defs2" /><g
    id="g8"><path
      d="M75.62,101.987l-0.251-0.117c-8.651-4.013-18.754-13.654-18.754-27.614c0-5.34,1.926-10.009,5.57-13.5   c6.813-6.523,17.795-7.03,21-7.03c0.343,0,0.659,0.006,0.945,0.015l74.581,0.004C146.813,22.134,119.156,0,82.149,0   C36.78,0,0,34.237,0,76.472c0,23.257,12.863,47.819,20.231,52.366c15.625,9.643,49.269,18.22,68.975,23.432   c26.402,6.983,45.63,13.115,58.002,14.084c7.958,0.624,19.61-6.28,23.291-26.574L75.62,101.987z"
      id="path4" /><path
      d="M163.898,63.745l-79.956-0.004c-2.772-0.12-10.843,0.409-14.839,4.236c-1.674,1.604-2.488,3.657-2.488,6.279   c0,12.233,11.859,18.031,12.962,18.543l93.918,37.41C173.341,116.848,164.959,67.871,163.898,63.745z M100.403,90.33l16.588-16.588   l14.142,0.001l-20.616,20.615L100.403,90.33z M136.253,104.61l-15.623-6.223l24.644-24.644l10.359,0   c0.487,2.767,1.061,6.13,1.671,9.815L136.253,104.61z"
      id="path6" /></g><path
    style="fill:#999999;fill-opacity:1;stroke-width:0.35252541"
    d="m 143.73843,166.03056 c -5.73469,-0.77124 -15.33654,-3.11878 -38.60153,-9.43762 -8.821952,-2.39607 -19.13332,-5.17624 -22.914155,-6.17816 -28.652956,-7.593 -44.859928,-12.95537 -56.756593,-18.77894 -4.495901,-2.20081 -5.410738,-2.80226 -7.594876,-4.9932 C 11.890375,120.64311 5.8698617,108.30708 2.5476698,95.244562 -1.9660904,77.496924 -0.34061911,60.874959 7.4774033,44.833427 19.120488,20.94338 42.724563,4.5409782 70.942192,0.73193465 76.645369,-0.03792633 87.936212,-0.05437411 93.339302,0.69930793 114.08411,3.5930218 131.07602,12.917649 144.21311,28.617258 c 4.94127,5.905113 10.39119,15.004247 13.30211,22.209102 l 1.13943,2.820203 -40.94803,0.187346 c -40.767325,0.186521 -40.960816,0.190769 -43.847855,0.962084 -12.37318,3.305673 -18.491692,11.431712 -17.024676,22.610593 0.851353,6.487402 3.513516,11.936049 8.257232,16.900047 5.490537,5.745507 4.028406,5.063175 50.703749,23.661907 22.93052,9.13713 44.5844,17.75625 48.11974,19.15359 4.67341,1.84718 6.42944,2.69849 6.43359,3.11896 0.0127,1.29061 -1.82818,7.50741 -3.08924,10.43247 -3.22445,7.47918 -8.19571,12.66083 -14.17881,14.77884 -2.22494,0.78763 -6.03231,1.02327 -9.34192,0.57816 z"
    id="path4505"
    inkscape:connector-curvature="0" /><path
    style="fill:#999999;fill-opacity:1;stroke-width:0.35252541"
    d="M 125.9359,111.29776 C 92.202112,97.847803 78.554207,92.247794 76.806996,91.139189 72.287707,88.271703 68.409475,83.258258 67.201681,78.722263 c -0.695876,-2.613434 -0.615071,-6.438097 0.172284,-8.15448 1.278224,-2.786447 3.902052,-4.639129 8.357436,-5.901177 l 2.789827,-0.790257 42.700972,-0.100855 42.70098,-0.100855 0.75127,3.97536 c 2.42009,12.805873 6.82114,41.593321 7.93741,51.918821 0.9858,9.11882 1.04958,10.40202 0.51573,10.37599 -0.26514,-0.0129 -21.5014,-8.4041 -47.19169,-18.64705 z m 20.89741,-17.209158 10.49351,-10.497885 -0.82131,-4.74884 -0.82132,-4.74884 -5.2561,-0.09799 -5.2561,-0.09799 -12.25174,12.247984 -12.25174,12.247984 7.65718,3.079755 c 4.21145,1.69386 7.73749,3.08739 7.83565,3.09673 0.0982,0.009 4.90054,-4.707066 10.67197,-10.480902 z m -26.00903,-9.94859 10.21868,-10.223237 h -7.05105 -7.05104 l -8.21312,8.21871 -8.21313,8.218709 4.86695,1.974364 c 2.67682,1.0859 4.94729,1.987937 5.04549,2.004527 0.0982,0.01659 4.77694,-4.570293 10.39722,-10.193073 z"
    id="path4507"
    inkscape:connector-curvature="0" /><path
    style="fill:#999999;fill-opacity:1;stroke-width:0.00550821"
    d="m 83.600898,94.40173 c -2.211546,-0.881086 -4.059413,-1.619933 -4.10637,-1.641883 -0.112033,-0.05237 -0.452847,-0.22388 -0.619674,-0.311846 -0.629309,-0.331827 -1.350036,-0.756239 -1.977896,-1.164718 -0.0664,-0.0432 -0.149824,-0.09739 -0.185382,-0.120413 l -0.06465,-0.04187 -7.1e-5,-0.04332 -7.2e-5,-0.04332 0.01239,0.008 c 0.283779,0.183146 0.426616,0.2625 0.85515,0.475084 0.572013,0.283762 1.295647,0.615582 2.393317,1.09745 1.671776,0.733895 4.303561,1.844524 7.332804,3.094486 l 0.384197,0.158532 v 0.06806 c 0,0.03743 -6.19e-4,0.06799 -0.0014,0.0679 -7.57e-4,-9e-5 -1.810824,-0.721052 -4.02237,-1.602137 z"
    id="path4509"
    inkscape:connector-curvature="0" /><path
    style="fill:#999999;fill-opacity:1;stroke-width:0.00390625"
    d="m 76.572724,91.070612 c -1.315478,-0.883838 -2.47639,-1.806278 -3.550781,-2.821388 -0.242597,-0.229211 -0.695183,-0.67756 -0.84668,-0.838753 l -0.04981,-0.05299 v -0.05715 -0.05715 h 0.03262 0.03261 l 0.04258,0.04587 c 0.547651,0.589913 1.13268,1.162915 1.724222,1.688777 0.821855,0.730602 1.709594,1.414406 2.56581,1.976382 l 0.123643,0.08115 0.0011,0.04141 c 6.1e-4,0.02278 -2.69e-4,0.04134 -0.002,0.04125 -0.0017,-8.8e-5 -0.0347,-0.02142 -0.07337,-0.0474 z"
    id="path4511"
    inkscape:connector-curvature="0" /><path
    style="fill:#999999;fill-opacity:1;stroke-width:0.00552427"
    d="m 72.046885,87.275567 c -1.073006,-1.135472 -1.969008,-2.297023 -2.743679,-3.556825 -0.127953,-0.208083 -0.293762,-0.493188 -0.448179,-0.770636 l -0.04151,-0.07458 0.07231,-0.0015 c 0.03977,-8.51e-4 0.07411,3.92e-4 0.07631,0.0028 0.0022,0.0024 0.04245,0.07019 0.08944,0.150704 0.825433,1.414253 1.86608,2.821499 3.030165,4.097628 l 0.112123,0.122915 h -0.03314 -0.03315 l -0.0016,0.05582 -0.0016,0.05582 z"
    id="path4513"
    inkscape:connector-curvature="0" /><path
    style="fill:#999999;fill-opacity:1;stroke-width:0.01104854"
    d="m 68.805489,82.855245 c -0.04003,-0.06157 -0.306,-0.580623 -0.423184,-0.825878 -1.011693,-2.117377 -1.573338,-4.253657 -1.728326,-6.573884 -0.01409,-0.21096 -0.03326,-0.640374 -0.03341,-0.748538 l -1.14e-4,-0.0801 h 0.05524 0.05524 l 7.6e-5,0.201636 c 3.92e-4,1.047639 0.130275,2.331856 0.333161,3.294131 0.301354,1.429301 0.940931,3.053892 1.800105,4.572447 0.05416,0.09572 0.09846,0.17651 0.09846,0.179539 0,0.003 -0.03175,0.0055 -0.07055,0.0055 -0.061,0 -0.07273,-0.0034 -0.08671,-0.02486 z"
    id="path4515"
    inkscape:connector-curvature="0" /><path
    style="fill:#999999;fill-opacity:1;stroke-width:0.00390625"
    d="m 66.616622,74.438303 c -0.01227,-0.893108 0.06607,-1.708218 0.237759,-2.473732 0.07823,-0.348782 0.184809,-0.712889 0.30311,-1.035457 0.0341,-0.09297 0.113464,-0.295292 0.133925,-0.341397 l 0.01,-0.02246 h 0.03721 0.03721 l -0.0055,0.01269 c -0.08071,0.18564 -0.119532,0.287048 -0.177606,0.463868 -0.222166,0.676435 -0.373613,1.591001 -0.434038,2.621093 -0.01536,0.261787 -0.02746,0.606371 -0.02749,0.782802 -1e-5,0.05178 -0.0012,0.113927 -0.0025,0.138097 l -0.0025,0.04395 h -0.05194 -0.05194 l -0.0012,0.02246 c -6.44e-4,0.01235 -0.0026,-0.08301 -0.0044,-0.211914 z"
    id="path4517"
    inkscape:connector-curvature="0" /><path
    style="fill:#999999;fill-opacity:1;stroke-width:0.00552427"
    d="m 67.301315,70.565733 c 0,-0.01067 0.118987,-0.269324 0.187903,-0.408465 0.621678,-1.255155 1.559333,-2.295103 2.895539,-3.211426 l 0.114145,-0.07828 h 0.06215 0.06215 l -0.09896,0.06723 c -1.350593,0.917642 -2.348166,2.027762 -3.011955,3.351769 -0.04508,0.08992 -0.09421,0.190156 -0.109182,0.222753 l -0.02722,0.05927 -0.03729,1.2e-4 c -0.02051,6.6e-5 -0.03729,-0.0013 -0.03729,-0.003 z"
    id="path4519"
    inkscape:connector-curvature="0" /><path
    style="fill:#999999;fill-opacity:1;stroke-width:0.0078125"
    d="m 81.43296,63.830431 v -0.04341 l 0.05273,-0.0048 c 0.029,-0.0026 0.154688,-0.01 0.279297,-0.01634 0.668421,-0.03418 1.298238,-0.04667 1.789062,-0.0355 0.227292,0.0052 2.666448,0.008 6.900391,0.0081 l 6.548828,6.2e-5 v 0.04595 0.04595 l -0.392578,0.0046 c -0.215918,0.0026 -2.985352,0.01003 -6.154297,0.01662 -3.168945,0.0066 -6.495605,0.01426 -7.392578,0.01706 l -1.630859,0.0051 z"
    id="path4521"
    inkscape:connector-curvature="0" /><path
    style="fill:#999999;fill-opacity:1;stroke-width:0.00552427"
    d="m 91.080853,97.381771 -3.455432,-1.377036 -0.0016,-0.06699 c -8.84e-4,-0.03819 6.33e-4,-0.06699 0.0035,-0.06699 0.0028,0 0.04327,0.0159 0.08994,0.03533 0.400044,0.166543 2.675104,1.099485 3.979471,1.631875 0.813852,0.332181 2.663419,1.085272 2.78009,1.131973 l 0.06215,0.02488 v 0.03257 c 0,0.01791 -6.21e-4,0.03231 -0.0014,0.032 -7.59e-4,-3.15e-4 -1.556325,-0.620239 -3.456813,-1.377608 z"
    id="path4523"
    inkscape:connector-curvature="0" /><path
    style="fill:#999999;fill-opacity:1;stroke-width:0.00390625"
    d="m 96.59702,99.57887 -2.05664,-0.819693 -0.0011,-0.03194 c -8.9e-4,-0.02489 -2.7e-5,-0.0315 0.0039,-0.02992 0.0028,0.0011 0.328486,0.133341 0.723798,0.293843 0.8178,0.332036 3.30559,1.33956 3.387695,1.37197 0.0052,0.002 0.0071,0.0366 0.002,0.0358 -0.0016,-2.2e-4 -0.928418,-0.36927 -2.059571,-0.820096 z"
    id="path4525"
    inkscape:connector-curvature="0" /><path
    style="fill:#999999;fill-opacity:1;stroke-width:0.00390625"
    d="m 99.413132,100.70088 -3.889649,-1.54959 v -0.124025 -0.124026 h 3.892578 3.892579 v 1.673831 c 0,0.9206 -10e-4,1.67373 -0.003,1.67362 -0.002,-1.2e-4 -1.75327,-0.69753 -3.892578,-1.54981 z"
    id="path5080"
    inkscape:connector-curvature="0" /><path
    style="fill:#999999;fill-opacity:1;stroke-width:0.00390625"
    d="m 104.16081,102.59169 c -0.55187,-0.21996 -0.85447,-0.34245 -0.8545,-0.3459 -2e-5,-0.003 0.003,-0.005 0.007,-0.003 0.004,0.001 0.20986,0.0837 0.45801,0.18364 0.24814,0.1 0.63134,0.25418 0.85156,0.34271 0.22021,0.0885 0.40112,0.16167 0.40202,0.16252 8.9e-4,8.6e-4 -8.7e-4,0.001 -0.004,0.001 -0.003,-1.4e-4 -0.39004,-0.15351 -0.85998,-0.34082 z"
    id="path5082"
    inkscape:connector-curvature="0" /><path
    style="fill:#999999;fill-opacity:1;stroke-width:0.00390625"
    d="m 170.73191,129.10828 -2.76074,-1.0997 v -0.0229 c 0,-0.0168 0.001,-0.0224 0.005,-0.021 0.0211,0.008 0.46042,0.18041 0.81543,0.3192 2.4698,0.96559 3.96684,1.54069 4.26429,1.63818 0.0736,0.0241 0.0918,0.0263 0.13862,0.0163 0.13266,-0.0281 0.20655,-0.18008 0.24133,-0.49632 0.0112,-0.10229 0.0153,-0.16619 0.0208,-0.32813 l 0.005,-0.14453 0.003,0.0645 c 0.014,0.34188 0.034,1.11878 0.03,1.16032 l -0.001,0.0138 z"
    id="path5084"
    inkscape:connector-curvature="0" /><path
    style="fill:#999999;fill-opacity:1;stroke-width:0.00390625"
    d="m 165.90476,127.18601 c -1.13115,-0.45081 -2.17221,-0.86576 -2.31347,-0.92211 -0.24217,-0.0966 -0.25684,-0.103 -0.25684,-0.11203 0,-0.007 0.002,-0.009 0.007,-0.008 0.004,10e-4 0.38652,0.15134 0.85058,0.33407 1.28168,0.50465 2.65865,1.04569 3.4956,1.37349 0.15656,0.0613 0.28499,0.112 0.28539,0.11263 0.003,0.005 -0.003,0.0421 -0.007,0.0417 -0.002,-2.3e-4 -0.93,-0.36926 -2.06115,-0.82006 z"
    id="path5086"
    inkscape:connector-curvature="0" /><path
    style="fill:#999999;fill-opacity:1;stroke-width:0.00390625"
    d="m 161.17504,125.30202 c -1.19734,-0.47721 -2.17546,-0.86816 -2.1736,-0.86878 0.002,-6.2e-4 0.79782,0.31246 1.76878,0.69573 0.97097,0.38327 1.94557,0.76785 2.16579,0.85463 0.32732,0.12899 0.40038,0.15908 0.40039,0.16491 0,0.004 0.006,0.0102 0.0137,0.0144 0.008,0.004 0.011,0.007 0.008,0.007 -0.003,-1.5e-4 -0.9855,-0.39071 -2.18285,-0.86792 z"
    id="path5088"
    inkscape:connector-curvature="0" /><path
    style="fill:#999999;fill-opacity:1;stroke-width:0.00390625"
    d="m 170.24958,141.0602 c 0,-0.002 0.0105,-0.0664 0.0233,-0.14225 0.0464,-0.27415 0.0677,-0.45296 0.0729,-0.61307 0.002,-0.0632 0.001,-0.0797 -0.004,-0.10097 -0.042,-0.16591 -0.31786,-0.38374 -0.86182,-0.68061 -0.43768,-0.23886 -1.07862,-0.54177 -1.90326,-0.89949 -0.0488,-0.0212 -0.088,-0.0393 -0.0871,-0.0402 0.001,-0.001 3.00351,1.19232 3.00862,1.19607 0.004,0.003 -0.24111,1.27731 -0.24705,1.28326 -9.3e-4,9.2e-4 -0.002,-3e-4 -0.002,-0.003 z"
    id="path5090"
    inkscape:connector-curvature="0" /><path
    style="fill:#999999;fill-opacity:1;stroke-width:0.00390625"
    d="m 168.53083,147.23596 c 0,-0.002 0.0299,-0.0941 0.0664,-0.20529 0.5819,-1.77187 1.12782,-3.661 1.43814,-4.97663 0.0136,-0.0577 0.0252,-0.10255 0.0258,-0.0996 0.002,0.01 -0.13106,0.59606 -0.2194,0.96628 -0.35343,1.48115 -0.76572,2.93573 -1.20825,4.26269 l -0.0186,0.0557 h -0.0421 c -0.0231,0 -0.0421,-0.001 -0.0421,-0.003 z"
    id="path5092"
    inkscape:connector-curvature="0" /><path
    style="fill:#999999;fill-opacity:1;stroke-width:0.00390625"
    d="m 167.2652,150.65901 c 0,-0.001 0.0221,-0.0542 0.0492,-0.11816 0.33402,-0.78916 0.71015,-1.80422 1.12866,-3.04593 l 0.0869,-0.25781 0.0405,0.001 c 0.0223,7.5e-4 0.0411,0.002 0.0419,0.003 0.002,0.002 -0.0203,0.0681 -0.10116,0.30455 -0.36722,1.0736 -0.74203,2.05158 -1.16807,3.04785 l -0.0288,0.0674 h -0.0245 c -0.0135,0 -0.0245,-8.7e-4 -0.0245,-0.002 z"
    id="path5094"
    inkscape:connector-curvature="0" /><path
    style="fill:#999999;fill-opacity:1;stroke-width:0.00390625"
    d="m 165.39539,154.40801 c 9.6e-4,-0.002 0.0342,-0.0601 0.0739,-0.12988 0.63176,-1.11165 1.22356,-2.3008 1.75303,-3.52247 0.0297,-0.0684 0.0457,-0.10124 0.0484,-0.0986 0.002,0.002 0.0123,0.004 0.0227,0.004 0.0103,0 0.0188,0.001 0.0188,0.003 0,0.008 -0.21131,0.48676 -0.32722,0.74163 -0.45726,1.00549 -0.9459,1.96676 -1.47386,2.89941 l -0.0602,0.10643 -0.0285,1e-5 c -0.0157,1e-5 -0.0278,-0.001 -0.0268,-0.003 z"
    id="path5096"
    inkscape:connector-curvature="0" /><path
    style="fill:#999999;fill-opacity:1;stroke-width:0.00390625"
    d="m 162.62332,158.46453 c 0.004,-0.005 0.0468,-0.0581 0.0952,-0.11816 0.93186,-1.15536 1.82241,-2.46171 2.63224,-3.86121 l 0.0441,-0.0762 0.027,0.001 c 0.0148,7.2e-4 0.027,0.002 0.027,0.003 0,7.8e-4 -0.0354,0.0626 -0.0787,0.13738 -0.79901,1.38 -1.64229,2.62222 -2.57234,3.78928 l -0.10662,0.13379 h -0.0375 -0.0375 z"
    id="path5098"
    inkscape:connector-curvature="0" /><path
    style="fill:#999999;fill-opacity:1;stroke-width:0.00390625"
    d="m 158.488,162.50328 c 0.003,-0.003 0.0409,-0.0323 0.0838,-0.0652 1.36596,-1.04795 2.65927,-2.30036 3.84405,-3.72249 0.0707,-0.0849 0.14443,-0.17403 0.16376,-0.19806 l 0.0352,-0.0437 0.0361,-1.8e-4 c 0.0199,-1.1e-4 0.0361,8.5e-4 0.0361,0.002 0,0.003 -0.11533,0.14464 -0.25954,0.31801 -0.66393,0.79816 -1.37965,1.56135 -2.11202,2.25214 -0.51241,0.4833 -1.06145,0.95594 -1.60403,1.38083 l -0.10449,0.0818 -0.0624,4e-5 c -0.0528,4e-5 -0.0615,-7.9e-4 -0.0566,-0.005 z"
    id="path5100"
    inkscape:connector-curvature="0" /><path
    style="fill:#999999;fill-opacity:1;stroke-width:0.00390625"
    d="m 153.12073,165.48028 5e-5,-0.0439 0.0595,-0.021 c 0.27053,-0.0956 0.68908,-0.26036 1.01654,-0.40013 1.4527,-0.62005 2.8668,-1.44162 4.17578,-2.42604 l 0.10938,-0.0823 0.0606,0.001 c 0.0333,6.8e-4 0.0608,0.002 0.0611,0.002 0.002,0.002 -0.36215,0.27558 -0.52208,0.39165 -1.31589,0.95503 -2.67774,1.71931 -4.09527,2.2983 -0.14771,0.0603 -0.30219,0.12074 -0.46137,0.18042 -0.13568,0.0509 -0.39469,0.14391 -0.40063,0.14391 -0.002,0 -0.004,-0.0191 -0.004,-0.0439 z"
    id="path5102"
    inkscape:connector-curvature="0" /><path
    style="fill:#999999;fill-opacity:1;stroke-width:0.00390625"
    d="m 147.89215,166.38904 c -0.21838,-0.007 -0.42056,-0.0161 -0.5166,-0.0234 l -0.0322,-0.002 v -0.0562 -0.0562 l 0.0986,-3e-5 c 0.18232,-6e-5 0.56897,-0.01 0.85254,-0.0216 1.84794,-0.0766 3.49384,-0.33852 4.69707,-0.74749 0.0697,-0.0237 0.1271,-0.0427 0.12751,-0.0422 4.2e-4,4.7e-4 0.001,0.0202 0.002,0.0438 l 0.001,0.043 -0.1875,0.0626 c -1.30577,0.43634 -2.612,0.69667 -3.89843,0.77696 -0.10051,0.006 -0.20666,0.0117 -0.35352,0.0181 -0.0864,0.004 -0.7064,0.008 -0.79102,0.005 z"
    id="path5104"
    inkscape:connector-curvature="0" /><path
    style="fill:#999999;fill-opacity:1;stroke-width:0.00390625"
    d="m 147.30426,166.36129 c -0.01,-7.8e-4 -0.094,-0.008 -0.1875,-0.015 -0.29925,-0.0239 -0.66961,-0.057 -0.95898,-0.0856 -0.28455,-0.0281 -0.42531,-0.0432 -0.41445,-0.0444 0.006,-7.1e-4 0.0686,0.001 0.13867,0.005 0.38611,0.0187 0.65933,0.0258 1.08926,0.0285 l 0.37207,0.002 v 0.0561 0.0561 l -0.0108,-6.8e-4 c -0.006,-3.7e-4 -0.0187,-0.001 -0.0283,-0.002 z"
    id="path5106"
    inkscape:connector-curvature="0" /><path
    style="fill:#999999;fill-opacity:1;stroke-width:0.00390625"
    d="m 137.26911,164.85571 c -2.44055,-0.49908 -4.62506,-0.99187 -7.55274,-1.70377 l -0.11718,-0.0285 -0.001,-0.0398 c -6.1e-4,-0.0219 3.5e-4,-0.0399 0.002,-0.0399 0.002,0 0.19476,0.0473 0.42884,0.10521 2.78917,0.68944 5.17141,1.24784 7.1678,1.68014 0.10098,0.0219 0.18422,0.0403 0.18498,0.041 0.009,0.008 -0.0191,0.005 -0.11271,-0.0144 z"
    id="path5110"
    inkscape:connector-curvature="0" /><path
    style="fill:#999999;fill-opacity:1;stroke-width:0.00390625"
    d="m 129.33551,163.05909 c -1.83789,-0.45311 -3.56636,-0.89152 -5.33203,-1.35241 l -0.24414,-0.0637 -10e-4,-0.0422 -0.001,-0.0422 0.0109,0.003 c 0.006,0.001 0.22446,0.0578 0.48549,0.12521 1.00074,0.25839 1.93162,0.49671 2.83594,0.72603 0.72393,0.18358 0.85784,0.2173 1.68555,0.42449 l 0.82422,0.20631 0.001,0.0394 c 0.001,0.0357 4.6e-4,0.0393 -0.006,0.039 -0.004,-1.8e-4 -0.12035,-0.0283 -0.25893,-0.0625 z"
    id="path5112"
    inkscape:connector-curvature="0" /><path
    style="fill:#999999;fill-opacity:1;stroke-width:0.00390625"
    d="m 123.65973,161.61741 c -0.0483,-0.0128 -0.28564,-0.0752 -0.52734,-0.13861 -1.44881,-0.38008 -3.10562,-0.82178 -4.85742,-1.29497 -0.29434,-0.0795 -0.55625,-0.15025 -0.58203,-0.15722 l -0.0469,-0.0127 -0.001,-0.0298 -10e-4,-0.0298 0.0578,0.0151 c 0.0318,0.008 0.23005,0.0608 0.44059,0.11666 0.47353,0.12563 0.38277,0.10161 0.8711,0.23053 1.08836,0.28735 2.14233,0.56408 3.10937,0.81641 0.19766,0.0516 0.37959,0.0991 0.4043,0.10553 0.1168,0.0306 0.93362,0.2426 1.07031,0.27782 0.0849,0.0219 0.15551,0.0409 0.157,0.0423 0.001,0.001 0.004,0.0206 0.005,0.0426 0.003,0.0377 0.002,0.04 -0.005,0.0397 -0.004,-1.9e-4 -0.0469,-0.0108 -0.0953,-0.0237 z"
    id="path5114"
    inkscape:connector-curvature="0" /><path
    style="fill:#999999;fill-opacity:1;stroke-width:0.00390625"
    d="m 117.37067,159.93974 c -0.14502,-0.0395 -0.54229,-0.14763 -0.88281,-0.24018 -0.74207,-0.20168 -2.28004,-0.62168 -3.08008,-0.84113 -0.31797,-0.0872 -0.80357,-0.22039 -1.0791,-0.29593 l -0.50098,-0.13736 v -0.0127 -0.0127 l 0.0264,0.007 c 0.23803,0.0663 4.13389,1.10781 5.39682,1.4427 0.21449,0.0569 0.39067,0.10409 0.3915,0.10493 8.4e-4,8.4e-4 0.003,0.0142 0.004,0.0296 0.002,0.026 0.002,0.0281 -0.005,0.0277 -0.004,-2.4e-4 -0.12605,-0.0328 -0.27107,-0.0723 z"
    id="path5116"
    inkscape:connector-curvature="0" /><path
    style="fill:#999999;fill-opacity:1;stroke-width:0.00390625"
    d="m 111.02887,158.20571 c -0.43183,-0.11896 -1.27533,-0.35121 -1.87442,-0.51613 -0.5991,-0.16492 -1.08755,-0.30043 -1.08545,-0.30113 0.002,-7e-4 0.2831,0.0743 0.62443,0.16662 1.04266,0.28207 3.12841,0.84415 3.13245,0.84415 0.001,0 0.002,0.005 0.002,0.0117 0,0.009 -0.002,0.0116 -0.007,0.0114 -0.004,-1.8e-4 -0.36016,-0.0977 -0.792,-0.21661 z"
    id="path5118"
    inkscape:connector-curvature="0" /><path
    style="fill:#999999;fill-opacity:1;stroke-width:0.015625"
    d="m 36.726248,136.57331 c -0.253516,-0.0983 -0.626172,-0.24264 -0.828125,-0.32079 -4.996607,-1.93341 -9.577405,-4.00298 -13.007813,-5.87682 -1.060118,-0.57909 -2.281246,-1.2916 -2.844091,-1.6595 -2.734599,-1.78742 -6.145434,-6.20734 -9.339112,-12.10206 -0.277149,-0.51154 -0.7621094,-1.43087 -0.7621094,-1.44471 0,-0.005 0.013296,-0.008 0.029548,-0.008 0.022802,0 0.080449,0.0972 0.2525194,0.42578 2.133676,4.07441 4.440352,7.53306 6.707919,10.05789 0.582198,0.64825 1.57168,1.63925 2.174076,2.1774 1.358889,1.21398 2.63526,1.98582 6.039063,3.6519 3.631536,1.77756 7.092314,3.28621 11.15625,4.86334 0.408203,0.15842 0.816015,0.31676 0.90625,0.35188 l 0.164062,0.0639 -0.09375,-5.2e-4 c -0.0816,-4.5e-4 -0.153486,-0.0237 -0.554687,-0.17922 z"
    id="path5120"
    inkscape:connector-curvature="0" /><path
    style="fill:#999999;fill-opacity:1;stroke-width:0.00390625"
    d="m 2.6917395,96.113262 c -0.00114,-0.0038 -0.019599,-0.07451 -0.041029,-0.157227 -0.4336816,-1.673936 -0.807032,-3.297986 -1.1334588,-4.930472 -0.032091,-0.16049 -0.058347,-0.294592 -0.058347,-0.298003 0,-0.0053 0.00507,-0.006 0.033999,-0.0051 l 0.033999,0.0011 0.02646,0.132812 c 0.2998307,1.504944 0.6567543,3.069525 1.046623,4.587891 0.049365,0.192254 0.1688419,0.652024 0.1738341,0.668945 0.00183,0.0062 -0.00177,0.0068 -0.038999,0.0068 -0.035671,0 -0.041285,-8.91e-4 -0.043082,-0.0068 z"
    id="path5122"
    inkscape:connector-curvature="0" /><path
    style="fill:#999999;fill-opacity:1;stroke-width:0.00390625"
    d="m 4.0662591,100.85503 c -0.00201,-0.003 -0.1094854,-0.34386 -0.177874,-0.56348 -0.4034446,-1.295563 -0.7910655,-2.64191 -1.1274433,-3.916013 -0.035734,-0.135352 -0.065724,-0.248731 -0.066644,-0.251953 -0.00141,-0.0049 0.00475,-0.0059 0.039343,-0.0059 0.03306,0 0.041362,0.0011 0.042803,0.0059 9.828e-4,0.0032 0.031832,0.118359 0.068553,0.255859 0.398439,1.491923 0.8430118,3.013215 1.3062043,4.469727 0.00278,0.009 0.00261,0.009 -0.040206,0.009 -0.023651,0 -0.043782,-0.001 -0.044735,-0.003 z"
    id="path5124"
    inkscape:connector-curvature="0" /><path
    style="fill:#999999;fill-opacity:1;stroke-width:0.00390625"
    d="m 5.5334667,105.12148 c -0.047067,-0.12567 -0.2132855,-0.58129 -0.303893,-0.83301 -0.2727337,-0.75766 -0.4843131,-1.3686 -0.7494508,-2.16406 -0.1788464,-0.53657 -0.4119211,-1.25176 -0.4119211,-1.26399 0,-0.002 0.019121,-0.004 0.042491,-0.004 l 0.042491,-0.001 0.00994,0.0312 c 0.3722653,1.16988 0.7724909,2.35265 1.1816866,3.49219 0.076236,0.2123 0.2544421,0.70191 0.2697827,0.74121 l 0.00419,0.0107 h -0.041016 c -0.038955,0 -0.041181,-4.4e-4 -0.044307,-0.009 z"
    id="path5126"
    inkscape:connector-curvature="0" /><path
    style="fill:#999999;fill-opacity:1;stroke-width:0.00390625"
    d="m 7.2090145,109.33536 c -0.031173,-0.0721 -0.1952834,-0.46163 -0.2678187,-0.63571 -0.3649104,-0.87576 -0.7137325,-1.74913 -1.0546701,-2.64066 -0.1328088,-0.34728 -0.3501879,-0.92774 -0.3481856,-0.92974 9.123e-4,-9.2e-4 0.019403,-5.8e-4 0.041089,7.4e-4 l 0.039431,0.002 0.0399,0.10783 c 0.4271004,1.15428 0.855153,2.24895 1.3191326,3.37346 0.092163,0.22337 0.3041589,0.73012 0.308448,0.73731 9.616e-4,0.002 -0.014238,0.003 -0.033777,0.003 h -0.035526 z"
    id="path5128"
    inkscape:connector-curvature="0" /><path
    style="fill:#999999;fill-opacity:1;stroke-width:0.0078125"
    d="m 9.9995005,115.18608 c -0.016985,-0.0239 -0.043233,-0.0319 -0.04888,-0.0149 -0.00164,0.005 -0.073668,-0.12955 -0.160056,-0.29883 -0.8427951,-1.65151 -1.6740766,-3.42541 -2.4389789,-5.20462 -0.073511,-0.17099 -0.1336556,-0.31249 -0.1336556,-0.31445 0,-0.002 0.015469,-0.004 0.034376,-0.004 h 0.034376 l 0.09579,0.22461 c 0.7746319,1.81636 1.6489654,3.69165 2.4517435,5.25856 0.1042287,0.20344 0.1878835,0.37151 0.1858995,0.37349 -0.002,0.002 -0.01126,-0.007 -0.020615,-0.0203 z"
    id="path5130"
    inkscape:connector-curvature="0" /><path
    style="fill:#999999;fill-opacity:1;stroke-width:0.00390625"
    d="m 1.1917538,89.306428 c -0.00552,-0.02773 -0.047976,-0.269401 -0.086291,-0.491211 -0.24251293,-1.403911 -0.45260473,-2.850453 -0.61498903,-4.234375 -0.035,-0.298288 -0.0725345,-0.631927 -0.0725345,-0.644749 0,-0.007 0.00294,-0.0076 0.0351563,-0.0076 0.0206497,0 0.0351563,0.0016 0.0351563,0.0039 0,0.01532 0.0572314,0.520891 0.0939696,0.830109 0.14243048,1.198803 0.32783036,2.489353 0.52946433,3.685546 0.05257,0.311871 0.1452558,0.84513 0.151575,0.872071 0.00143,0.0061 -0.00203,0.0068 -0.03291,0.0068 h -0.034514 z"
    id="path5132"
    inkscape:connector-curvature="0" /><path
    style="fill:#999999;fill-opacity:1;stroke-width:0.00390625"
    d="m 0.41593252,83.922639 c -0.00215,-0.01 -0.0346248,-0.320052 -0.0623848,-0.595703 -0.0926841,-0.920334 -0.16692603,-1.831987 -0.224587,-2.757813 -0.0127972,-0.205476 -0.03912106,-0.669867 -0.03913681,-0.69043 l -9.72e-6,-0.01269 h 0.03487517 0.0348752 l 0.002133,0.02051 c 0.001173,0.01128 0.003991,0.0583 0.006263,0.104492 0.0347155,0.706006 0.11769205,1.844015 0.19937352,2.734375 0.0356771,0.388894 0.10987889,1.130604 0.11920003,1.191504 l 0.002108,0.01377 -0.035511,-9.7e-5 c -0.0323028,-9e-5 -0.0356634,-8.04e-4 -0.037198,-0.0079 z"
    id="path5134"
    inkscape:connector-curvature="0" /><path
    style="fill:#999999;fill-opacity:1;stroke-width:0.00390625"
    d="M 0.08810621,79.841584 C 0.0816335,79.773755 0.04996365,79.033916 0.03714817,78.651154 0.02063674,78.158005 0.00404674,77.407581 0.00392215,77.148225 l -4.551e-5,-0.09473 h 0.03320313 0.03320312 l 3.672e-5,0.08496 c 6.801e-5,0.158094 0.01283074,0.736029 0.02546914,1.15332 0.01409875,0.465509 0.04549825,1.22892 0.06294097,1.530274 l 0.002544,0.04395 h -0.0354186 -0.0354186 l -0.0023298,-0.02441 z"
    id="path5136"
    inkscape:connector-curvature="0" /><path
    style="fill:#999999;fill-opacity:1;stroke-width:0.00390625"
    d="m 0.00254471,76.970837 c -0.00380797,-0.122274 -0.003043433,-0.833661 0.00132172,-1.229839 0.00731913,-0.664278 0.02246025,-1.324033 0.04294084,-1.871094 0.002051,-0.05479 0.0049267,-0.134326 0.0063904,-0.176757 l 0.0026613,-0.07715 h 0.02646094 0.02646094 l -0.001737,0.02051 c -0.001741,0.02055 -0.0137002,0.410074 -0.0211373,0.688477 -0.01742991,0.652477 -0.02516229,1.396341 -0.02199306,2.115759 0.0013689,0.310737 0.0036125,0.575728 0.0049858,0.588867 l 0.0024969,0.02389 H 0.03825742 0.00511902 Z"
    id="path5138"
    inkscape:connector-curvature="0" /><path
    style="fill:#999999;fill-opacity:1;stroke-width:0.00390625"
    d="m 0.05750354,73.589631 c 6.3135e-4,-0.0145 0.0055689,-0.130957 0.01097223,-0.258789 0.03488018,-0.825188 0.09202949,-1.754813 0.16005408,-2.603536 0.009644,-0.120323 0.0175343,-0.222716 0.0175343,-0.227539 0,-0.0081 0.001761,-0.0088 0.0231919,-0.0088 h 0.0231919 l -0.001801,0.01269 c -0.002434,0.01716 -0.0334772,0.42127 -0.0503369,0.655274 -0.0525256,0.729028 -0.0955135,1.505495 -0.12510833,2.259766 -0.003203,0.08164 -0.005831,0.159423 -0.00584,0.172851 l -1.616e-5,0.02441 H 0.08285051 0.05635564 Z"
    id="path5140"
    inkscape:connector-curvature="0" /><path
    style="fill:#999999;fill-opacity:1;stroke-width:0.00390625"
    d="m 0.24855628,70.479562 c 8.5945e-4,-0.0077 0.008613,-0.09745 0.0172308,-0.199501 0.0650505,-0.770347 0.15257178,-1.614483 0.26031733,-2.510743 l 0.0109181,-0.09082 h 0.0205364 c 0.0245778,0 0.0235664,-0.0062 0.0127645,0.07813 -0.0831233,0.648821 -0.20240348,1.808704 -0.26794154,2.605469 -0.005743,0.06982 -0.0106571,0.127174 -0.0109192,0.127445 -2.6215e-4,2.71e-4 -0.010375,0.0013 -0.0224729,0.0022 l -0.0219962,0.0017 z"
    id="path5142"
    inkscape:connector-curvature="0" /><path
    style="fill:#999999;fill-opacity:1;stroke-width:0.00390625"
    d="m 0.57379033,67.698029 -0.001554,-0.01758 -0.0166016,-0.0012 c -0.0148247,-0.0011 -0.0166016,-0.0023 -0.0166016,-0.01105 0,-0.0054 0.0106004,-0.09365 0.0235566,-0.196064 0.11616302,-0.918266 0.24159147,-1.781523 0.39058197,-2.688167 0.0192416,-0.11709 0.0359186,-0.216846 0.03706,-0.22168 0.001866,-0.0079 0.004429,-0.0088 0.0254383,-0.0088 0.01285,0 0.023363,4.87e-4 0.023363,0.0011 0,5.95e-4 -0.020144,0.122324 -0.0447651,0.270508 -0.15841598,0.953456 -0.27232368,1.735802 -0.40578119,2.787005 -0.008735,0.0688 -0.0136633,0.09762 -0.0146963,0.08594 z"
    id="path5144"
    inkscape:connector-curvature="0" /><path
    style="fill:#999999;fill-opacity:1;stroke-width:0.00390625"
    d="m 0.99215789,64.554469 c 0,-0.02473 0.16355681,-0.944765 0.24217921,-1.362299 0.084829,-0.450494 0.2742438,-1.402229 0.2874528,-1.444336 0.00177,-0.0056 0.00686,-0.0068 0.029225,-0.0068 0.01757,0 0.027081,0.0016 0.027081,0.0044 0,0.0024 -0.013269,0.06694 -0.029486,0.143335 -0.1720889,0.810708 -0.3525,1.750446 -0.4915763,2.560559 -0.00953,0.05549 -0.017914,0.101418 -0.018637,0.102054 -0.00217,0.0019 -0.0462376,0.0049 -0.0462376,0.0031 z"
    id="path5146"
    inkscape:connector-curvature="0" /><path
    style="fill:#999999;fill-opacity:1;stroke-width:0.00390625"
    d="m 1.5234079,61.74029 c 0,-0.0093 0.1199839,-0.564979 0.1879496,-0.870386 0.2899697,-1.302992 0.6144411,-2.588734 0.9860323,-3.907226 l 0.01844,-0.06543 h 0.04192 0.04192 l -0.056189,0.196289 C 2.29941,58.644845 1.9123361,60.188498 1.5909133,61.689988 l -0.01124,0.05251 -0.028133,2.47e-4 c -0.015473,1.37e-4 -0.028133,-9.66e-4 -0.028133,-0.0024 z"
    id="path5148"
    inkscape:connector-curvature="0" /><path
    style="fill:#999999;fill-opacity:1;stroke-width:0.00390625"
    d="m 2.738977,56.816193 c 0.3084535,-1.079057 0.6030679,-2.030974 0.9535734,-3.081054 l 0.09127,-0.273438 0.053849,-0.0011 c 0.042459,-8.59e-4 0.053446,-3.3e-5 0.051947,0.0039 -0.012149,0.03192 -0.2186281,0.643391 -0.2879181,0.852652 -0.2697638,0.814708 -0.5487327,1.709491 -0.7617722,2.443359 -0.019646,0.06768 -0.036616,0.126123 -0.037711,0.129883 -0.00174,0.006 -0.00736,0.0068 -0.044199,0.0068 h -0.042209 z"
    id="path5150"
    inkscape:connector-curvature="0" /><path
    style="fill:#999999;fill-opacity:1;stroke-width:0.00390625"
    d="m 3.7851266,53.460082 c 0,-0.0021 0.00785,-0.02627 0.017435,-0.0538 0.00959,-0.02753 0.047222,-0.137061 0.083628,-0.243409 0.2314023,-0.675956 0.5368719,-1.521728 0.7808944,-2.162109 l 0.014885,-0.03906 0.061801,-0.0011 c 0.048861,-8.52e-4 0.061394,-3.4e-5 0.059853,0.0039 -0.230947,0.5908 -0.6037875,1.606849 -0.8532703,2.325297 -0.026858,0.07734 -0.051327,0.147717 -0.054375,0.156386 l -0.00554,0.01576 -0.052654,9.3e-4 c -0.031682,5.6e-4 -0.052654,-5.64e-4 -0.052654,-0.0028 z"
    id="path5152"
    inkscape:connector-curvature="0" /><path
    style="fill:#999999;fill-opacity:1;stroke-width:0.00390625"
    d="m 4.6835641,50.960378 c 0,-0.0066 0.1844944,-0.485249 0.3066282,-0.795552 0.3928722,-0.998161 0.8046418,-1.980063 1.2392387,-2.955078 0.065598,-0.147168 0.1237095,-0.277685 0.1291373,-0.290039 l 0.00987,-0.02246 h 0.070091 c 0.054565,0 0.069635,0.0011 0.068035,0.0049 -0.00113,0.0027 -0.016459,0.03652 -0.034063,0.0752 -0.525555,1.154527 -1.180858,2.718778 -1.653699,3.947487 l -0.014366,0.03733 -0.060436,8.45e-4 c -0.03324,4.65e-4 -0.060436,-7.1e-4 -0.060436,-0.0026 z"
    id="path5154"
    inkscape:connector-curvature="0" /><path
    style="fill:#999999;fill-opacity:1;stroke-width:0.00390625"
    d="m 6.4286813,46.898233 c -0.031689,-6.57e-4 -0.057617,-0.0023 -0.057617,-0.0036 0,-0.0032 0.1491128,-0.331289 0.2500429,-0.550108 0.4493355,-0.974172 0.8877216,-1.873505 1.4047171,-2.881727 l 0.081568,-0.15907 0.069595,-1.1e-4 0.069595,-1.09e-4 -0.027165,0.05176 c -0.1362985,0.25969 -0.5913681,1.169854 -0.7932581,1.58656 -0.3222474,0.665125 -0.6137983,1.285893 -0.896835,1.909534 -0.021025,0.04633 -0.023317,0.04974 -0.032815,0.04894 -0.00562,-4.75e-4 -0.036139,-0.0014 -0.067828,-0.0021 z"
    id="path5156"
    inkscape:connector-curvature="0" /><path
    style="fill:#999999;fill-opacity:1;stroke-width:0.00390625"
    d="m 8.1228486,43.275178 c 0.0084,-0.01558 0.040342,-0.07666 0.070989,-0.135742 0.6107225,-1.177378 1.314196,-2.437976 2.0800814,-3.727429 l 0.101442,-0.170788 0.06324,-1.1e-4 0.06324,-1.11e-4 -0.02955,0.0498 c -0.7865679,1.325805 -1.5128488,2.631411 -2.1457651,3.857355 l -0.080078,0.155109 -0.069437,1.17e-4 -0.069437,1.17e-4 0.015268,-0.02832 z"
    id="path5158"
    inkscape:connector-curvature="0" /><path
    style="fill:#999999;fill-opacity:1;stroke-width:0.00390625"
    d="m 10.381213,39.233199 c 0.0069,-0.0128 0.229856,-0.381016 0.330033,-0.544935 0.417477,-0.683113 0.879073,-1.410345 1.340124,-2.111328 0.204003,-0.310168 0.614821,-0.923029 0.70764,-1.055664 l 0.02119,-0.03027 h 0.05465 c 0.04266,0 0.05401,0.0011 0.05175,0.0049 -0.0016,0.0027 -0.03922,0.0585 -0.0836,0.124023 -0.730303,1.078211 -1.510306,2.302443 -2.204468,3.459961 l -0.09663,0.161133 h -0.06243 c -0.06118,0 -0.06234,-1.55e-4 -0.05825,-0.0078 z"
    id="path5160"
    inkscape:connector-curvature="0" /><path
    style="fill:#999999;fill-opacity:1;stroke-width:0.00390625"
    d="m 12.8279,35.492051 c -0.02524,-7.15e-4 -0.0459,-0.0021 -0.0459,-0.0032 0,-10e-4 0.04074,-0.06119 0.09052,-0.133665 0.578602,-0.842308 1.133244,-1.617038 1.758993,-2.456977 l 0.163695,-0.219727 h 0.04808 c 0.02645,0 0.04808,9.13e-4 0.04808,0.002 0,0.0011 -0.04538,0.06308 -0.100836,0.137696 -0.638732,0.859365 -1.203588,1.652404 -1.82583,2.563401 -0.05386,0.07886 -0.07821,0.111387 -0.08348,0.111529 -0.0041,1.1e-4 -0.02809,-3.85e-4 -0.05333,-0.0011 z"
    id="path5162"
    inkscape:connector-curvature="0" /><path
    style="fill:#999999;fill-opacity:1;stroke-width:0.00390625"
    d="m 14.885673,32.683193 c -0.0015,-0.0015 -0.02211,-0.0036 -0.0458,-0.0047 l -0.04307,-0.002 0.149475,-0.197266 c 0.750901,-0.99098 1.474053,-1.901064 2.261195,-2.845703 0.246063,-0.295296 0.416971,-0.497394 0.742498,-0.878004 l 0.119141,-0.1393 0.04004,-1.37e-4 c 0.02202,-7.5e-5 0.04004,7.98e-4 0.04004,0.0019 0,0.0011 -0.04182,0.0508 -0.09294,0.110351 -1.004689,1.170399 -2.038912,2.458879 -3.034837,3.780938 -0.07316,0.09711 -0.134238,0.175335 -0.135735,0.173828 z"
    id="path5164"
    inkscape:connector-curvature="0" /><path
    style="fill:#999999;fill-opacity:1;stroke-width:0.00390625"
    d="m 18.105934,28.616236 -0.03427,-0.0022 0.08292,-0.0957 c 1.132574,-1.307178 2.358576,-2.632193 3.506733,-3.78994 l 0.173455,-0.174904 h 0.0326 c 0.01793,0 0.0326,0.0013 0.0326,0.0028 0,0.0015 -0.06114,0.06439 -0.135872,0.139648 -0.497607,0.501158 -1.123595,1.155274 -1.674865,1.750123 -0.64491,0.695892 -1.237405,1.359103 -1.894057,2.120117 -0.02549,0.02954 -0.04829,0.05338 -0.05066,0.05297 -0.0024,-4.06e-4 -0.01974,-0.0017 -0.03858,-0.0029 z"
    id="path5166"
    inkscape:connector-curvature="0" /><path
    style="fill:#999999;fill-opacity:1;stroke-width:0.00390625"
    d="m 21.862861,24.553785 -0.02734,-0.0022 0.232422,-0.231883 c 0.498446,-0.49729 0.986413,-0.971884 1.474701,-1.434285 0.09878,-0.09354 0.188646,-0.178429 0.199708,-0.188641 l 0.02011,-0.01857 0.03196,0.0011 0.03196,0.0011 -0.08912,0.08398 c -0.460074,0.433574 -0.999255,0.956974 -1.558305,1.512695 -0.155073,0.15415 -0.283484,0.279963 -0.285357,0.279584 -0.0019,-3.8e-4 -0.01571,-0.0017 -0.03075,-0.0029 z"
    id="path5168"
    inkscape:connector-curvature="0" /><path
    style="fill:#999999;fill-opacity:1;stroke-width:0.00390625"
    d="m 23.77787,22.67892 -0.01468,-0.0024 0.104522,-0.09791 c 0.965361,-0.904255 1.939102,-1.772411 2.971711,-2.649483 l 0.07422,-0.06304 0.03223,-5.9e-5 c 0.01772,-3.2e-5 0.03223,6.15e-4 0.03223,0.0014 0,8.24e-4 -0.02681,0.02409 -0.05957,0.05171 -0.355074,0.299319 -0.926072,0.79384 -1.325195,1.147704 -0.600879,0.532743 -1.076452,0.966577 -1.71875,1.567902 -0.05547,0.05193 -0.05361,0.05108 -0.09671,0.0441 z"
    id="path5170"
    inkscape:connector-curvature="0" /><path
    style="fill:#999999;fill-opacity:1;stroke-width:0.00390625"
    d="m 26.946236,19.865998 -0.02991,-0.002 0.09028,-0.07617 c 1.311137,-1.106235 2.704361,-2.206955 4.0855,-3.227757 l 0.178468,-0.131907 0.03752,0.0011 0.03752,0.0011 -0.04802,0.03502 c -0.246625,0.179869 -0.853812,0.633919 -1.165205,0.871331 -1.056446,0.805455 -2.07597,1.622787 -3.083984,2.47237 -0.0333,0.02807 -0.06318,0.05277 -0.06641,0.05491 -0.0033,0.0022 -0.01895,0.003 -0.03577,0.0019 z"
    id="path5172"
    inkscape:connector-curvature="0" /><path
    style="fill:#999999;fill-opacity:1;stroke-width:0.00390625"
    d="m 31.290846,16.428888 -0.01733,-0.0023 0.01342,-0.01012 c 0.09778,-0.07374 0.653533,-0.476044 0.939202,-0.67989 0.808562,-0.576971 1.69551,-1.185386 2.50639,-1.719298 l 0.135163,-0.089 0.04641,0.0011 0.04641,0.0011 -0.01563,0.0096 c -0.03146,0.0194 -0.473468,0.310507 -0.634765,0.418052 -0.938684,0.625871 -1.829819,1.246634 -2.748701,1.914739 -0.212696,0.154648 -0.219921,0.159507 -0.236328,0.158939 -0.0093,-3.23e-4 -0.02472,-0.0016 -0.03425,-0.0029 z"
    id="path5174"
    inkscape:connector-curvature="0" /><path
    style="fill:#999999;fill-opacity:1;stroke-width:0.00390625"
    d="m 34.887269,13.929533 -0.01856,-0.0015 0.04786,-0.03166 c 0.02632,-0.01741 0.120807,-0.07911 0.209967,-0.137116 1.385723,-0.901492 2.76045,-1.739413 4.197266,-2.558307 0.197284,-0.11244 0.29303,-0.166523 0.621779,-0.351219 l 0.08272,-0.04647 0.06362,0.0011 0.06362,0.0011 -0.173677,0.09628 c -1.595758,0.884673 -3.271202,1.891896 -4.834246,2.906192 l -0.191819,0.124476 -0.02498,-7.04e-4 c -0.01374,-3.87e-4 -0.03333,-0.0014 -0.04354,-0.0022 z"
    id="path5176"
    inkscape:connector-curvature="0" /><path
    style="fill:#999999;fill-opacity:1;stroke-width:0.00390625"
    d="m 40.056732,10.8038 -0.02488,-0.0023 0.02913,-0.01625 c 1.985041,-1.1071832 4.208213,-2.2241789 6.317508,-3.174126 0.245175,-0.1104173 0.628204,-0.2810399 0.635742,-0.2831952 0.0062,-0.00178 0.0068,0.00189 0.0067,0.040493 l -1.34e-4,0.042448 -0.172717,0.075973 c -0.622662,0.2738901 -1.396462,0.628389 -2.078967,0.952432 -1.541238,0.731756 -2.993552,1.4754892 -4.527568,2.3185782 l -0.09007,0.0495 -0.03493,-6.74e-4 c -0.01921,-3.71e-4 -0.04613,-0.0017 -0.05981,-0.0029 z"
    id="path5178"
    inkscape:connector-curvature="0" /><path
    style="fill:#999999;fill-opacity:1;stroke-width:0.00390625"
    d="m 47.021064,7.375507 c 0,-0.018403 -0.0017,-0.036652 -0.0038,-0.040553 -0.0033,-0.00611 -7.03e-4,-0.00845 0.01855,-0.01691 1.294547,-0.5686323 2.417824,-1.0324918 3.686413,-1.522312 0.413336,-0.159595 1.151654,-0.437546 1.162247,-0.437546 0.0022,0 0.0038,0.018356 0.0038,0.044038 v 0.044038 l -0.03027,0.01116 c -1.57613,0.5810519 -3.223557,1.2450845 -4.748605,1.914032 -0.04704,0.020632 -0.08615,0.037512 -0.08691,0.037512 -7.67e-4,0 -0.0014,-0.015057 -0.0014,-0.03346 z"
    id="path5180"
    inkscape:connector-curvature="0" /><path
    style="fill:#999999;fill-opacity:1;stroke-width:0.00390625"
    d="m 51.887274,5.4021309 c -0.0011,-0.023096 -8.86e-4,-0.043229 4.78e-4,-0.04474 0.0047,-0.00516 0.648585,-0.2390458 1.035656,-0.3761696 1.200539,-0.4253032 2.432006,-0.8309539 3.645839,-1.2009554 0.09203,-0.028052 0.171568,-0.052069 0.176757,-0.053372 l 0.0094,-0.00237 -3.5e-5,0.044369 -3.5e-5,0.044369 -0.05758,0.017156 c -0.317312,0.094542 -1.050109,0.3248103 -1.563442,0.491283 -1.021923,0.3314074 -2.270921,0.7635084 -3.175583,1.0986182 -0.03534,0.013091 -0.06543,0.023802 -0.06687,0.023802 -0.0014,0 -0.0035,-0.018896 -0.0046,-0.041992 z"
    id="path5182"
    inkscape:connector-curvature="0" /><path
    style="fill:#999999;fill-opacity:1;stroke-width:0.00390625"
    d="m 56.755463,3.7673653 2.4e-5,-0.043945 0.174781,-0.052351 c 1.232551,-0.369178 2.421747,-0.6973117 3.68064,-1.0155951 0.346273,-0.087548 0.995645,-0.246507 1.007016,-0.246507 0.0033,0 0.0047,0.011045 0.0047,0.038294 v 0.038294 l -0.03809,0.00896 c -0.08853,0.020821 -0.882971,0.2192197 -1.073242,0.2680254 -1.194842,0.306484 -2.383782,0.6372605 -3.532187,0.9826936 -0.120828,0.036344 -0.220584,0.06608 -0.22168,0.06608 -0.0011,0 -0.002,-0.019775 -0.002,-0.043945 z"
    id="path5184"
    inkscape:connector-curvature="0" /><path
    style="fill:#999999;fill-opacity:1;stroke-width:0.00390625"
    d="m 61.621929,2.4538888 c -3.84e-4,-0.016113 -8.23e-4,-0.033203 -9.76e-4,-0.037978 -2.51e-4,-0.00779 0.0035,-0.00959 0.03683,-0.017534 1.413775,-0.3372615 2.785642,-0.6293353 4.205078,-0.8952712 0.285745,-0.053535 0.614972,-0.1136703 0.622322,-0.1136703 0.0037,0 0.0047,0.00738 0.0038,0.028237 l -0.0011,0.028237 -0.03906,0.00709 c -0.390602,0.070867 -1.296945,0.2486571 -1.814454,0.3559259 -0.995147,0.2062731 -1.991434,0.4293972 -2.896484,0.6486837 -0.05801,0.014055 -0.107666,0.02556 -0.110352,0.025567 -0.0034,8.7e-6 -0.0051,-0.00882 -0.0056,-0.029284 z"
    id="path5186"
    inkscape:connector-curvature="0" /><path
    style="fill:#999999;fill-opacity:1;stroke-width:0.00390625"
    d="m 66.486777,1.4172838 c 6.37e-4,-0.021126 0.0023,-0.028298 0.0068,-0.029657 0.01019,-0.00305 0.467901,-0.083646 0.701294,-0.123483 1.319401,-0.2252006 2.581003,-0.41199394 3.902103,-0.57774717 0.137368,-0.017235 0.252177,-0.0313363 0.25513,-0.0313363 0.0037,0 0.005,0.003928 0.0041,0.0126521 l -0.0012,0.0126521 -0.05664,0.006888 c -0.219146,0.0266488 -0.729251,0.0963859 -1.193359,0.16314581 -1.106423,0.15915376 -2.288154,0.35205736 -3.365235,0.54933446 -0.123535,0.022627 -0.231194,0.042101 -0.239243,0.043277 l -0.01463,0.00214 z"
    id="path5190"
    inkscape:connector-curvature="0" /><path
    style="fill:#999999;fill-opacity:1;stroke-width:0.00390625"
    d="m 68.439033,3.00467 c 0,-1.5829046 9.39e-4,-1.9472656 0.005,-1.9472656 0.0028,0 0.08406,-0.012193 0.180665,-0.027096 1.922501,-0.29656807 3.750904,-0.51661062 5.794788,-0.69738461 0.483876,-0.0427971 1.798095,-0.14278955 1.803653,-0.13723116 5.69e-4,5.689e-4 10e-4,1.07095627 10e-4,2.37863847 v 2.3776042 h -3.892578 -3.892578 z"
    id="path5192"
    inkscape:connector-curvature="0" /><path
    style="fill:#999999;fill-opacity:1;stroke-width:0.00390625"
    d="m 76.222019,0.28676228 c -0.0011,-0.002888 -0.0015,-0.0244736 -8.99e-4,-0.0479683 l 0.0011,-0.0427177 0.04102,-0.002715 c 1.516947,-0.10042567 3.006252,-0.15963129 4.657226,-0.18514271 l 0.170899,-0.00264078 v 0.07235608 0.07235607 l -0.08301,0.002294 c -0.04565,0.001262 -0.183203,0.003273 -0.305664,0.004469 -0.919182,0.008977 -2.187433,0.0403379 -3.242188,0.0801716 -0.441451,0.0166718 -1.153413,0.0476137 -1.211992,0.0526733 -0.01843,0.001591 -0.02499,8.1497e-4 -0.02651,-0.003135 z"
    id="path5194"
    inkscape:connector-curvature="0" /><path
    style="fill:#999999;fill-opacity:1;stroke-width:0.00390625"
    d="m 85.683174,0.18415961 c -1.076375,-0.0280965 -2.086532,-0.038445 -3.54004,-0.0362658 l -1.051757,0.001577 V 0.07852879 0.0075869 l 0.145507,-0.00241377 c 0.811564,-0.01346267 2.243378,-0.00191155 3.333008,0.02688893 0.471667,0.01246683 1.357633,0.04276051 1.379883,0.04718206 0.0086,0.0017115 0.0088,0.0028456 0.0088,0.05635968 v 0.0546131 l -0.04394,-5.8149e-4 c -0.02417,-3.198e-4 -0.12832,-0.002784 -0.231445,-0.005476 z"
    id="path5196"
    inkscape:connector-curvature="0" /><path
    style="fill:#999999;fill-opacity:1;stroke-width:0.00390625"
    d="m 90.810127,0.43377589 c -0.03467,-0.004842 -0.688167,-0.0521485 -1.015625,-0.0735196 -1.056493,-0.0689506 -2.329551,-0.12719102 -3.5,-0.16011961 -0.114942,-0.003234 -0.237381,-0.006968 -0.272088,-0.008299 l -0.0631,-0.00242 -0.0015,-0.0533116 c -8.38e-4,-0.0293214 -9.33e-4,-0.05411691 -2.11e-4,-0.05510119 0.0015,-0.0021045 0.311979,0.01110454 0.643566,0.0273837 1.301086,0.0638763 2.566172,0.15347744 3.859375,0.27334439 0.388519,0.0360117 0.365235,0.0331316 0.365235,0.0451781 0,0.005169 -0.0013,0.009136 -0.0029,0.008814 -0.0016,-3.2192e-4 -0.0073,-0.001199 -0.0127,-0.001949 z"
    id="path5198"
    inkscape:connector-curvature="0" /><path
    style="fill:#999999;fill-opacity:1;stroke-width:0.00390625"
    d="m 91.763252,0.51783873 c -0.08158,-0.009456 -0.648903,-0.0601368 -0.852539,-0.0761601 -0.07592,-0.005974 -0.08496,-0.007416 -0.08496,-0.0135527 0,-0.003777 -0.0031,-0.007671 -0.0068,-0.008654 -0.0044,-0.001155 -0.0032,-0.001946 0.0034,-0.00224 0.01228,-5.4393e-4 0.432523,0.0415 0.718283,0.0718624 0.267306,0.0284015 0.300106,0.0322634 0.273438,0.0321949 -0.01182,-3.047e-5 -0.03467,-0.001583 -0.05078,-0.003451 z"
    id="path5200"
    inkscape:connector-curvature="0" /><path
    style="fill:#999999;fill-opacity:1;stroke-width:0.00390625"
    d="M 95.544502,1.0355525 C 95.081158,0.9584424 94.357716,0.8469378 93.800361,0.76672691 c -0.343283,-0.049403 -0.38769,-0.0560721 -0.376521,-0.056546 0.01101,-4.6703e-4 0.397115,0.0498605 0.70074,0.0913382 0.414365,0.0566057 0.918294,0.12964026 1.348892,0.1954949 0.118843,0.0181757 0.216841,0.0330467 0.217773,0.0330467 9.32e-4,0 0.0017,0.00615 0.0017,0.013672 0,0.012398 -10e-4,0.013638 -0.01074,0.01331 -0.0059,-1.992e-4 -0.06787,-0.00987 -0.137695,-0.02149 z"
    id="path5202"
    inkscape:connector-curvature="0" /><path
    style="fill:#999999;fill-opacity:1;stroke-width:0.00390625"
    d="M 100.53864,1.9966021 C 100.5255,1.9912472 99.699553,1.8131131 99.380439,1.7468096 99.199492,1.7092136 98.665256,1.6003431 98.616767,1.591183 98.59958,1.5879361 98.51872,1.5720479 98.43708,1.5558758 97.670129,1.4039522 96.755695,1.2372606 95.917549,1.096592 95.801533,1.077121 95.703003,1.060392 95.698592,1.059416 c -0.0066,-0.00147 -0.0077,-0.00413 -0.0064,-0.015533 0.0014,-0.011743 0.0028,-0.013474 0.01,-0.011814 0.0046,0.00107 0.07604,0.012558 0.158756,0.02553 1.480352,0.2321551 3.224576,0.5583126 4.621092,0.8641117 l 0.0762,0.01668 0.001,0.03021 c 10e-4,0.029296 8.7e-4,0.030201 -0.008,0.029902 -0.005,-1.695e-4 -0.0107,-0.00102 -0.0129,-0.0019 z"
    id="path5204"
    inkscape:connector-curvature="0" /><path
    style="fill:#999999;fill-opacity:1;stroke-width:0.00390625"
    d="M 105.28278,3.193582 C 103.9607,2.8137909 102.21245,2.3708972 100.68522,2.0288499 l -0.12687,-0.028413 -0.001,-0.03011 c -0.001,-0.025681 -2.5e-4,-0.03011 0.005,-0.03011 0.008,0 0.48292,0.1051638 0.74974,0.1659895 1.33188,0.3036275 2.61735,0.6305695 3.93555,1.0009579 l 0.17773,0.04994 0.001,0.038041 c 8.6e-4,0.029154 -6e-5,0.037937 -0.004,0.037596 -0.003,-2.45e-4 -0.0657,-0.017866 -0.13979,-0.039159 z"
    id="path5206"
    inkscape:connector-curvature="0" /><path
    style="fill:#999999;fill-opacity:1;stroke-width:0.00390625"
    d="m 110.25349,4.7740339 c -0.19657,-0.071842 -0.83805,-0.2929166 -1.29297,-0.4456 -1.05501,-0.3540846 -2.3537,-0.7575799 -3.38672,-1.0522267 -0.0537,-0.01532 -0.10936,-0.031293 -0.12366,-0.035495 l -0.026,-0.00764 -3.9e-4,-0.037052 c -2.5e-4,-0.023157 0.001,-0.037052 0.004,-0.037052 0.009,0 0.56583,0.1612407 0.92397,0.2675937 1.26247,0.3749016 2.55637,0.7955044 3.82301,1.2427307 l 0.12012,0.04241 v 0.038086 c 0,0.020947 -10e-4,0.037863 -0.003,0.037591 -0.002,-2.723e-4 -0.0187,-0.00628 -0.0381,-0.013344 z"
    id="path5208"
    inkscape:connector-curvature="0" /><path
    style="fill:#999999;fill-opacity:1;stroke-width:0.00390625"
    d="M 114.96052,6.6115324 C 113.56411,6.0104389 111.91577,5.364789 110.40974,4.8290105 l -0.11719,-0.04169 10e-4,-0.035856 c 7.5e-4,-0.019721 0.002,-0.036453 0.003,-0.037181 0.002,-0.00241 0.50729,0.1796584 0.88517,0.3191428 1.11086,0.4100344 2.19714,0.8393958 3.30029,1.3044627 0.15981,0.067372 0.58166,0.2476945 0.65528,0.2801022 l 0.0244,0.010747 v 0.034646 c 0,0.019055 -4.4e-4,0.034479 -9.8e-4,0.034275 -5.3e-4,-2.039e-4 -0.0906,-0.038961 -0.20019,-0.086127 z"
    id="path5210"
    inkscape:connector-curvature="0" /><path
    style="fill:#999999;fill-opacity:1;stroke-width:0.00390625"
    d="M 118.92536,8.4439256 C 117.72932,7.848722 116.43387,7.2466642 115.24763,6.7347061 l -0.084,-0.036246 -0.001,-0.03512 -10e-4,-0.03512 0.0812,0.035269 c 1.00311,0.4357093 2.01732,0.9030187 3.04214,1.4017043 0.28797,0.1401312 0.96289,0.4753294 0.96289,0.4782219 0,0.00125 -0.0268,0.00212 -0.0596,0.00193 l -0.0596,-3.379e-4 -0.20313,-0.1010839 z"
    id="path5212"
    inkscape:connector-curvature="0" /><path
    style="fill:#999999;fill-opacity:1;stroke-width:0.00390625"
    d="m 124.68903,11.631161 c -1.71285,-1.047838 -3.46708,-2.0257497 -5.30363,-2.9565691 l -0.25048,-0.1269531 0.0553,-0.00251 0.0553,-0.00251 0.11265,0.05635 c 0.40184,0.201012 1.15538,0.5946781 1.70006,0.8881531 1.2767,0.6878771 2.61758,1.4604541 3.80371,2.1915871 l 0.0342,0.02107 v 0.02842 c 0,0.01563 -4.4e-4,0.02842 -9.7e-4,0.02842 -5.4e-4,-2e-6 -0.0933,-0.05646 -0.20606,-0.125459 z"
    id="path5214"
    inkscape:connector-curvature="0" /><path
    style="fill:#999999;fill-opacity:1;stroke-width:0.00390625"
    d="m 129.27692,14.672091 c -1.34004,-0.961184 -2.75684,-1.906875 -4.1696,-2.783139 l -0.21258,-0.131849 9.7e-4,-0.02659 c 5.3e-4,-0.01462 0.002,-0.02712 0.002,-0.02778 6.6e-4,-6.58e-4 0.0563,0.0329 0.12372,0.07458 1.38801,0.858414 2.73904,1.754347 4.06783,2.697564 0.14819,0.105184 0.44253,0.315524 0.44694,0.319383 9e-4,7.83e-4 -0.0184,0.0014 -0.043,0.0013 l -0.0446,-1.56e-4 -0.17188,-0.123282 z"
    id="path5216"
    inkscape:connector-curvature="0" /><path
    style="fill:#999999;fill-opacity:1;stroke-width:0.00390625"
    d="m 134.46966,18.740022 c -1.54783,-1.324425 -3.23574,-2.653723 -4.87698,-3.840821 l -0.14042,-0.101562 0.0412,-0.002 0.0412,-0.002 0.12695,0.09151 c 0.56289,0.40575 1.28219,0.942911 1.88281,1.406056 1.00282,0.773286 1.93454,1.528308 2.93864,2.381339 l 0.14713,0.125 8e-5,0.03027 9e-5,0.03027 h -0.0113 c -0.009,0 -0.0371,-0.02207 -0.14944,-0.118164 z"
    id="path5218"
    inkscape:connector-curvature="0" /><path
    style="fill:#999999;fill-opacity:1;stroke-width:0.00390625"
    d="m 137.30932,21.286897 c -0.7833,-0.738293 -1.72488,-1.587257 -2.52253,-2.274414 -0.0848,-0.07305 -0.16037,-0.138505 -0.16795,-0.145462 l -0.0138,-0.01265 0.0125,0.0024 0.0125,0.0024 0.001,-0.02954 10e-4,-0.02954 0.0957,0.08221 c 0.87022,0.747545 1.70091,1.492729 2.55273,2.289985 0.0687,0.06435 0.14102,0.132514 0.16061,0.151484 l 0.0356,0.03449 h -0.046 -0.046 z"
    id="path5220"
    inkscape:connector-curvature="0" /><path
    style="fill:#999999;fill-opacity:1;stroke-width:0.00390625"
    d="m 140.46463,24.421654 c -0.39342,-0.414491 -0.97519,-1.008622 -1.48125,-1.512706 -0.52821,-0.526162 -0.91647,-0.90401 -1.41889,-1.38084 l -0.17698,-0.167969 0.0455,-0.0011 0.0455,-0.0011 0.10417,0.09876 c 0.88613,0.840118 1.81757,1.7647 2.63967,2.620244 0.24046,0.250238 0.38458,0.401635 0.38458,0.40399 0,0.0012 -0.0189,0.0023 -0.042,0.0023 l -0.042,-7e-6 -0.0584,-0.06152 z"
    id="path5222"
    inkscape:connector-curvature="0" /><path
    style="fill:#999999;fill-opacity:1;stroke-width:0.00390625"
    d="m 142.80755,26.980279 c -0.71584,-0.813789 -1.43747,-1.604105 -2.18199,-2.389671 l -0.1,-0.105469 0.0365,-0.002 c 0.0201,-0.0011 0.0376,-0.0031 0.039,-0.0045 0.008,-0.008 0.88564,0.938062 1.41029,1.520164 0.32896,0.364982 0.988,1.111112 1.00318,1.135742 0.002,0.0038 -0.005,0.0049 -0.032,0.0049 h -0.035 z"
    id="path5224"
    inkscape:connector-curvature="0" /><path
    style="fill:#999999;fill-opacity:1;stroke-width:0.00390625"
    d="m 145.31403,29.976498 c -0.64187,-0.815889 -1.37904,-1.702492 -2.19437,-2.639187 -0.0932,-0.107087 -0.16891,-0.1952 -0.16822,-0.195809 7e-4,-6.08e-4 0.0158,-0.0019 0.0336,-0.0029 l 0.0324,-0.0018 0.0597,0.0687 c 0.74691,0.859622 1.69747,2.010133 2.39418,2.8978 0.003,0.0038 -0.002,0.0049 -0.025,0.0048 l -0.0288,-5.4e-5 z"
    id="path5226"
    inkscape:connector-curvature="0" /><path
    style="fill:#999999;fill-opacity:1;stroke-width:0.00390625"
    d="m 148.11481,33.78103 c -0.13904,-0.202658 -0.48319,-0.692296 -0.7104,-1.010735 -0.62924,-0.881857 -1.30803,-1.793142 -1.89997,-2.550704 -0.047,-0.06011 -0.084,-0.109645 -0.0822,-0.110068 0.002,-4.24e-4 0.0141,-0.0014 0.0275,-0.0023 l 0.0244,-0.0015 0.0263,0.03345 c 0.8087,1.029882 1.50081,1.949864 2.22183,2.953373 0.22554,0.313903 0.541,0.75907 0.541,0.763446 0,0.0012 -0.0215,0.0021 -0.0479,0.002 l -0.0478,-1.48e-4 z"
    id="path5228"
    inkscape:connector-curvature="0" /><path
    style="fill:#999999;fill-opacity:1;stroke-width:0.00390625"
    d="m 150.12856,36.81424 c -0.0128,-0.02175 -0.30733,-0.480103 -0.43239,-0.672851 -0.46937,-0.723457 -0.93836,-1.426018 -1.41071,-2.113281 l -0.11545,-0.167969 0.0417,-0.002 c 0.023,-0.0011 0.0435,-0.0031 0.0457,-0.0046 0.008,-0.0055 0.59722,0.848545 1.04552,1.516278 0.27623,0.411434 0.95245,1.444442 0.95245,1.454976 0,0.0011 -0.0269,0.0021 -0.0597,0.0021 h -0.0597 z"
    id="path5230"
    inkscape:connector-curvature="0" /><path
    style="fill:#999999;fill-opacity:1;stroke-width:0.00390625"
    d="m 152.35134,40.468404 c -0.58297,-1.012984 -1.47921,-2.487859 -2.18315,-3.59264 l -0.0299,-0.04687 0.0537,-0.002 c 0.0295,-0.0011 0.0554,-0.0031 0.0576,-0.0045 0.004,-0.0026 0.0136,0.01195 0.21238,0.324831 0.67446,1.0617 1.35551,2.188907 1.98958,3.292969 0.0376,0.06553 0.0705,0.123096 0.073,0.12793 l 0.005,0.0088 -0.0577,-1.33e-4 -0.0578,-1.33e-4 -0.0623,-0.108266 z"
    id="path5232"
    inkscape:connector-curvature="0" /><path
    style="fill:#999999;fill-opacity:1;stroke-width:0.00390625"
    d="m 154.02302,43.464312 c -0.4049,-0.758025 -0.95215,-1.745752 -1.37937,-2.489628 -0.0251,-0.04366 -0.086,-0.149701 -0.13538,-0.235639 -0.0494,-0.08594 -0.0905,-0.157568 -0.0915,-0.15918 -9.2e-4,-0.0016 0.0244,-0.0029 0.0562,-0.0028 l 0.0579,9e-5 0.1113,0.196199 c 0.4847,0.854406 0.9128,1.635849 1.34727,2.459255 l 0.10994,0.208369 -0.001,0.08116 -0.001,0.08116 z"
    id="path5234"
    inkscape:connector-curvature="0" /><path
    style="fill:#999999;fill-opacity:1;stroke-width:0.00390625"
    d="m 155.86902,47.107209 c -0.021,-0.04526 -0.0906,-0.190182 -0.18884,-0.393555 -0.38007,-0.786409 -0.78869,-1.597796 -1.22657,-2.435546 -0.0972,-0.18598 -0.33883,-0.643756 -0.35154,-0.666035 -0.007,-0.01294 -0.008,-0.01792 -0.005,-0.09104 0.002,-0.04254 0.003,-0.07681 0.004,-0.07615 0.002,0.002 0.19085,0.365737 0.26684,0.512911 0.49473,0.958124 1.07128,2.129438 1.50169,3.050781 0.0301,0.06445 0.0564,0.120264 0.0583,0.124024 0.003,0.0062 0.001,0.0068 -0.0202,0.0068 h -0.0237 z"
    id="path5236"
    inkscape:connector-curvature="0" /><path
    style="fill:#999999;fill-opacity:1;stroke-width:0.00390625"
    d="m 157.5323,50.870881 c -0.004,-0.0102 -0.0168,-0.04053 -0.0276,-0.06738 -0.0678,-0.169443 -0.23195,-0.565831 -0.34618,-0.836069 -0.36448,-0.862281 -0.81361,-1.861277 -1.22839,-2.73229 l -0.0446,-0.09375 0.0219,-0.0023 c 0.012,-0.0012 0.0222,-0.0021 0.0225,-0.002 10e-4,5.61e-4 0.20344,0.437799 0.28783,0.621992 0.44183,0.964392 0.85371,1.905737 1.26836,2.898817 l 0.0966,0.231446 h -0.0212 -0.0212 z"
    id="path5238"
    inkscape:connector-curvature="0" /><path
    style="fill:#999999;fill-opacity:1;stroke-width:0.00390625"
    d="m 156.04841,53.702312 v -0.04259 l 0.04,-0.0021 c 0.0364,-0.002 2.0517,-0.01067 2.41061,-0.01043 l 0.15182,1.02e-4 -0.002,-0.0088 c -0.001,-0.0048 -0.25012,-0.622942 -0.55352,-1.373574 -0.30339,-0.750632 -0.55255,-1.367184 -0.55367,-1.370117 -0.002,-0.0041 0.003,-0.0053 0.0193,-0.0053 h 0.0214 l 0.0617,0.149414 c 0.26696,0.646825 0.57665,1.424655 0.83479,2.096679 0.0922,0.23997 0.22961,0.602809 0.22961,0.606184 0,0.0018 -0.59853,0.0032 -1.33007,0.0032 h -1.33008 z"
    id="path5240"
    inkscape:connector-curvature="0" /><path
    style="fill:#999999;fill-opacity:1;stroke-width:0.00390625"
    d="m 151.18122,53.711701 v -0.0332 l 0.16113,-5e-5 c 0.0886,-2.7e-5 1.08399,-0.0044 2.21192,-0.0097 1.12793,-0.0053 2.15053,-0.0097 2.27246,-0.0097 l 0.22168,-5.1e-5 v 0.04297 0.04297 h -2.4336 -2.43359 z"
    id="path5242"
    inkscape:connector-curvature="0" /><path
    style="fill:#999999;fill-opacity:1;stroke-width:0.00390625"
    d="m 146.31403,53.723911 v -0.02099 l 0.40528,-0.0026 c 0.2229,-0.0014 1.19189,-0.0059 2.15332,-0.01006 0.96142,-0.0041 1.87417,-0.0084 2.02832,-0.0096 l 0.28027,-0.0021 v 0.0332 0.0332 h -2.43359 -2.4336 z"
    id="path5244"
    inkscape:connector-curvature="0" /><path
    style="fill:#999999;fill-opacity:1;stroke-width:0.00390625"
    d="m 141.44685,51.649201 v -2.095703 h 3.89257 3.89258 v 2.095703 2.095703 h -3.89258 -3.89257 z"
    id="path5246"
    inkscape:connector-curvature="0" /><path
    style="fill:#999999;fill-opacity:1;stroke-width:0.00390625"
    d="m 136.57966,51.649201 v -2.095703 h 3.89258 3.89257 v 2.095703 2.095703 h -3.89257 -3.89258 z"
    id="path5248"
    inkscape:connector-curvature="0" /><path
    style="fill:#999999;fill-opacity:1;stroke-width:0.00390625"
    d="m 72.345283,55.233173 c 0.04537,-0.01488 0.360166,-0.110806 0.5,-0.152368 0.570092,-0.169441 1.352993,-0.381597 1.744141,-0.472637 0.431444,-0.10042 0.833582,-0.17085 1.302734,-0.228158 0.175259,-0.02141 0.328811,-0.03806 0.330974,-0.0359 0.0028,0.0028 -0.0013,0.0036 -0.159099,0.0318 -1.218808,0.217442 -2.428084,0.495375 -3.586792,0.824369 -0.07889,0.0224 -0.145685,0.04055 -0.148437,0.04033 -0.0028,-2.14e-4 0.0047,-0.0036 0.01648,-0.0074 z"
    id="path5250"
    inkscape:connector-curvature="0" /><path
    style="fill:#999999;fill-opacity:1;stroke-width:0.00390625"
    d="m 70.508225,66.863309 c 0.0079,-0.0076 0.175523,-0.115238 0.298521,-0.191718 1.141319,-0.709669 2.544096,-1.314618 4.134933,-1.783193 0.265361,-0.07816 0.536972,-0.153752 0.544017,-0.151404 0.0025,8.45e-4 -0.0033,0.0035 -0.01287,0.0059 -0.0096,0.0024 -0.09131,0.02657 -0.181541,0.05366 -1.866795,0.56044 -3.377447,1.226309 -4.606659,2.030535 l -0.06369,0.04167 h -0.05922 c -0.05101,0 -0.05842,-7.62e-4 -0.0535,-0.0055 z"
    id="path5252"
    inkscape:connector-curvature="0" /><path
    style="fill:#999999;fill-opacity:1;stroke-width:0.0078125"
    d="m 96.954585,63.832858 0.04883,-0.0023 v -0.0426 -0.0426 h 6.906245 6.90625 v 0.02641 0.02641 l -0.43164,0.0047 c -0.2374,0.0026 -3.18261,0.01006 -6.54492,0.01664 -3.3623,0.0066 -6.297849,0.01281 -6.523435,0.01384 -0.225586,0.001 -0.388183,8.2e-4 -0.361328,-4.6e-4 z"
    id="path5254"
    inkscape:connector-curvature="0" /><path
    style="fill:#999999;fill-opacity:1;stroke-width:0.00390625"
    d="m 80.419209,63.865897 c 0.114318,-0.01188 0.480249,-0.04293 0.685547,-0.05817 0.107986,-0.008 0.308447,-0.02155 0.319336,-0.02155 0.0086,-4e-6 0.0088,10e-4 0.0088,0.04296 v 0.04297 l -0.532227,-4.65e-4 c -0.471152,-4.11e-4 -0.526399,-0.0011 -0.481445,-0.0057 z"
    id="path5256"
    inkscape:connector-curvature="0" /><path
    style="fill:#999999;fill-opacity:1;stroke-width:0.0078125"
    d="m 147.13039,93.764007 -3.1e-4,-0.03125 4.88927,-4.889265 c 4.77282,-4.772814 4.88991,-4.889205 4.91596,-4.886717 0.0261,0.0025 -0.0814,0.110719 -4.88896,4.920518 l -4.91566,4.917969 z"
    id="path5258"
    inkscape:connector-curvature="0" /><path
    style="fill:#999999;fill-opacity:1;stroke-width:0.0078125"
    d="m 117.34067,87.574257 v -0.03807 l 4.49851,-4.498504 4.49851,-4.498505 0.0408,0.0024 0.0408,0.0024 -4.13926,4.140625 c -2.2766,2.277343 -4.31929,4.317714 -4.53933,4.534157 l -0.40006,0.393533 z"
    id="path5260"
    inkscape:connector-curvature="0" /><path
    style="fill:#999999;fill-opacity:1;stroke-width:0.01104854"
    d="m 170.41641,103.15739 c -0.41702,-2.86367 -0.98417,-6.6476 -1.45519,-9.708897 -0.27898,-1.813183 -0.73516,-4.743688 -0.74514,-4.786782 -0.005,-0.02063 -0.001,-0.02486 0.0216,-0.02486 0.0222,0 0.0285,0.0068 0.0336,0.03591 0.009,0.04918 0.24506,1.535626 0.39325,2.472111 0.49604,3.134728 1.03556,6.65542 1.49161,9.733768 0.17687,1.19384 0.44109,3.00189 0.44109,3.01833 0,0.005 -0.0162,0.009 -0.0359,0.009 h -0.0359 l -0.10901,-0.74853 z"
    id="path5262"
    inkscape:connector-curvature="0" /><path
    style="fill:#999999;fill-opacity:1;stroke-width:0.01104854"
    d="m 172.32661,117.12828 c -0.003,-0.0198 -0.0336,-0.25964 -0.0671,-0.53309 -0.33565,-2.74351 -0.98116,-7.48829 -1.60226,-11.77725 -0.0695,-0.47979 -0.12633,-0.8807 -0.12633,-0.89092 0,-0.0122 0.0114,-0.0202 0.033,-0.0234 0.0296,-0.004 0.0336,-0.001 0.0389,0.0291 0.0203,0.11771 0.36284,2.53044 0.54122,3.81258 0.44784,3.21892 0.86556,6.40082 1.14877,8.75044 0.0395,0.32815 0.0747,0.61278 0.0781,0.63253 0.005,0.0306 0.003,0.0359 -0.0159,0.0359 -0.0163,0 -0.0237,-0.009 -0.0283,-0.0359 z"
    id="path5264"
    inkscape:connector-curvature="0" /><path
    style="fill:#999999;fill-opacity:1;stroke-width:0.01104854"
    d="m 173.23428,125.61633 c -0.0685,-0.74 -0.21439,-2.18421 -0.35609,-3.52449 -0.25359,-2.39861 -0.38838,-3.61154 -0.5421,-4.87833 -0.006,-0.0514 -0.005,-0.0556 0.0166,-0.0556 0.0129,0 0.0234,0.004 0.0234,0.009 0,0.005 0.0347,0.30368 0.0771,0.6633 0.28349,2.40485 0.51536,4.59345 0.6791,6.41015 0.069,0.76548 0.13983,1.63415 0.13648,1.67386 -0.002,0.0213 -0.0173,-0.11297 -0.0344,-0.29831 z"
    id="path5266"
    inkscape:connector-curvature="0" /></svg>