<?xml version="1.0" encoding="UTF-8" ?>
<!DOCTYPE svg PUBLIC "-//W3C//DTD SVG 1.1//EN" "http://www.w3.org/Graphics/SVG/1.1/DTD/svg11.dtd">
<svg width="388pt" height="170pt" viewBox="0 0 388 170" version="1.1" xmlns="http://www.w3.org/2000/svg">
<path fill="#ffffff" d=" M 176.90 23.95 C 182.76 13.08 194.89 7.08 206.82 5.94 C 214.59 5.41 222.95 6.79 229.16 11.80 C 235.66 16.71 240.72 23.99 241.73 32.21 C 242.75 40.41 243.86 48.62 244.33 56.88 C 222.78 65.29 201.14 73.45 179.58 81.85 C 177.05 82.87 174.43 83.70 172.03 85.03 C 173.17 76.91 171.74 68.63 172.83 60.50 C 180.30 56.64 187.68 52.46 194.34 47.30 C 196.50 45.33 199.66 43.29 199.08 39.92 C 199.41 38.31 198.11 37.30 197.15 36.27 C 191.39 38.05 186.23 41.30 180.73 43.70 C 177.52 44.97 174.63 47.75 170.96 47.15 C 170.53 39.10 173.19 31.02 176.90 23.95 Z" />
<path fill="#ffffff" d=" M 302.44 40.99 C 309.42 37.04 316.40 32.26 320.59 25.24 C 337.37 40.12 351.90 57.66 362.76 77.33 C 373.65 96.60 380.28 118.19 382.10 140.25 C 380.07 138.52 377.76 137.09 376.02 135.06 C 373.55 132.04 373.78 127.99 373.17 124.36 C 370.58 101.79 359.66 80.45 343.34 64.73 C 331.91 53.70 318.00 44.76 302.44 40.99 Z" />
<path fill="#ffffff" d=" M 106.52 55.04 C 114.36 53.80 121.79 50.39 128.24 45.82 C 123.78 55.49 119.33 65.16 114.74 74.76 C 103.85 78.89 93.23 83.70 82.64 88.53 C 61.97 98.11 41.51 108.34 22.44 120.87 C 23.81 116.83 26.91 113.77 29.81 110.78 C 36.17 104.73 42.86 99.04 49.86 93.75 C 61.08 85.67 73.25 79.04 85.39 72.47 C 93.43 68.09 101.48 62.89 106.52 55.04 Z" />
<path fill="#ffffff" d=" M 280.87 50.29 C 295.03 47.90 309.57 51.94 321.70 59.29 C 338.42 69.45 351.65 85.39 358.28 103.82 C 362.70 116.51 364.00 130.95 358.60 143.56 C 354.71 153.10 346.39 160.62 336.54 163.60 C 324.42 167.35 311.19 165.26 299.75 160.24 C 280.54 151.69 265.05 135.54 256.57 116.37 C 250.58 102.59 248.25 86.32 253.98 72.06 C 258.36 60.72 268.93 52.35 280.87 50.29 Z" />
<path fill="#ffffff" d=" M 128.23 58.32 C 131.38 54.10 137.40 56.60 140.84 59.16 C 151.26 66.87 158.58 77.87 166.02 88.30 C 164.68 94.85 163.61 101.46 162.38 108.03 C 151.18 96.19 141.80 82.75 132.36 69.50 C 130.40 66.10 126.74 62.55 128.23 58.32 Z" />
<path fill="#ffffff" d=" M 183.75 87.84 C 204.71 79.95 225.72 72.22 246.67 64.31 C 239.08 81.63 239.99 102.02 247.59 119.18 C 253.67 133.28 263.95 145.13 275.48 155.07 C 252.67 155.58 229.83 154.89 207.03 155.57 C 196.35 155.53 185.67 155.59 175.00 155.55 C 172.77 155.40 170.09 155.38 168.63 153.40 C 166.36 150.41 167.00 146.46 167.02 142.96 C 167.89 130.62 168.34 118.25 169.87 105.97 C 170.36 101.04 171.26 95.58 175.06 92.04 C 177.56 89.95 180.77 89.02 183.75 87.84 Z" />
<path fill="#000000" d=" M 295.36 85.56 C 299.94 83.96 304.99 84.67 309.41 86.44 C 320.37 91.07 328.76 101.87 329.71 113.84 C 330.14 120.95 325.63 128.70 318.20 129.88 C 309.97 131.30 301.90 127.42 296.06 121.86 C 289.91 115.92 285.46 107.59 285.97 98.86 C 286.05 93.07 289.88 87.49 295.36 85.56 Z" />
<path fill="#ffffff" d=" M 105.43 87.11 C 115.23 85.46 125.31 88.04 133.67 93.25 C 147.71 101.94 158.49 116.62 160.74 133.18 C 161.69 139.28 160.74 145.62 158.30 151.27 C 154.50 159.84 145.28 165.49 135.95 165.30 C 126.13 165.88 116.62 161.87 108.74 156.26 C 95.28 146.51 85.64 130.83 85.03 114.00 C 85.31 106.93 87.19 99.49 92.27 94.28 C 95.71 90.52 100.47 88.15 105.43 87.11 Z" />
<path fill="#ffffff" d=" M 37.72 118.72 C 51.56 110.83 65.77 103.47 80.69 97.83 C 76.09 106.23 76.74 116.34 78.75 125.40 C 81.40 136.45 86.39 147.38 94.98 155.09 C 66.11 155.08 37.25 155.09 8.38 155.08 C 8.53 151.13 8.74 147.06 10.49 143.44 C 12.75 138.09 17.18 134.17 21.23 130.18 C 26.13 125.56 31.99 122.17 37.72 118.72 Z" />
<path fill="#000000" d=" M 116.48 110.71 C 119.88 109.59 123.48 110.79 126.59 112.23 C 133.45 115.84 138.69 123.12 138.75 131.02 C 138.82 136.65 133.57 141.70 127.88 140.93 C 118.95 140.01 111.49 132.35 109.63 123.73 C 108.17 118.57 110.92 111.94 116.48 110.71 Z" />
</svg>
